<svg xmlns:xlink="http://www.w3.org/1999/xlink" width="18" height="9" viewBox="0 0 18 9" fill="none" xmlns="http://www.w3.org/2000/svg">
<path d="M8.79725 8.75468C8.25612 7.25311 8.25613 7.25311 4.75084 5.66317C6.24642 5.4735 7.30632 5.31884 8.37085 5.2092C9.51215 5.09123 10.6564 4.98493 11.8023 4.92865C13.354 4.85236 14.9095 4.85069 16.4607 4.77149C17.0752 4.73981 18.0179 5.00452 17.9997 3.98694C17.9837 3.08608 17.0744 3.08775 16.4434 3.09817C14.1511 3.13611 11.8576 3.2199 9.56951 3.36664C8.29747 3.44793 7.03596 3.68763 5.54502 3.88564C6.84279 2.29528 8.97482 1.94845 10.0469 -4.39166e-07C9.37043 0.0375179 8.89806 -0.0483566 8.52395 0.102967C5.76013 1.22143 3.16416 2.63503 0.881146 4.56389C0.67659 4.73647 0.469082 4.92031 0.317669 5.13625C-0.246231 5.94039 -0.0589653 6.79539 0.876088 7.06344C3.33371 7.76795 5.8217 8.36991 8.30168 8.9973C8.39658 9.02064 8.53238 8.88891 8.79725 8.75468Z" fill="white"/>
</svg>